<svg width="24" height="24" viewBox="0 0 24 24" fill="none" xmlns="http://www.w3.org/2000/svg">
<path d="M3.44032 10.9758C8.809 8.63681 12.389 7.09483 14.1801 6.34978C19.2945 4.22255 20.3573 3.85303 21.0499 3.8407C21.2024 3.83814 21.5429 3.87589 21.7635 4.05493C21.9499 4.20611 22.0011 4.41034 22.0258 4.55368C22.0503 4.69701 22.0808 5.02353 22.0565 5.27865C21.7794 8.19059 20.5801 15.2574 19.97 18.5189C19.7118 19.899 19.2035 20.3618 18.7114 20.4069C17.8645 20.485 17.1791 19.9963 16.4161 19.4523L16.413 19.4501C16.2134 19.3079 16.0085 19.1618 15.7941 19.0213C14.9479 18.4666 14.2939 18.0213 13.6383 17.5747L13.6337 17.5716C13.0349 17.1638 12.4344 16.7549 11.6842 16.2605C10.1193 15.2294 10.7743 14.5979 11.6476 13.7559C11.7891 13.6196 11.9365 13.4775 12.0809 13.3276C12.1436 13.2624 12.4436 12.9834 12.8689 12.5879L12.905 12.5543C14.3308 11.2289 17.0858 8.66757 17.1553 8.37107C17.1667 8.32245 17.1774 8.14123 17.0696 8.04547C16.9619 7.94971 16.8029 7.98249 16.6882 8.00845C16.5258 8.04547 13.9365 9.75688 8.92027 13.1429C8.1853 13.6477 7.51957 13.8935 6.92311 13.8806C6.26556 13.8664 5.00069 13.5088 4.06039 13.2031C3.92231 13.1583 3.78761 13.116 3.6576 13.0751C2.7021 12.7746 2.00003 12.5538 2.07027 11.9933C2.11184 11.6618 2.56852 11.3226 3.44032 10.9758Z" fill="white"/>
</svg>
