<svg width="24" height="24" viewBox="0 0 24 24" fill="#EFE8E0" xmlns="http://www.w3.org/2000/svg">
<path d="M3.44032 10.9759C8.809 8.63687 12.389 7.09489 14.1801 6.34984C19.2945 4.22261 20.3573 3.85309 21.0499 3.84076C21.2024 3.8382 21.5429 3.87595 21.7635 4.05499C21.9499 4.20617 22.0011 4.4104 22.0258 4.55374C22.0503 4.69707 22.0808 5.02359 22.0565 5.27871C21.7794 8.19065 20.5801 15.2575 19.97 18.519C19.7118 19.8991 19.2035 20.3619 18.7114 20.407C17.8645 20.4851 17.1791 19.9964 16.4161 19.4524L16.413 19.4501C16.2134 19.3079 16.0085 19.1619 15.7941 19.0214C14.9479 18.4667 14.2939 18.0214 13.6383 17.5748L13.6337 17.5717C13.0349 17.1639 12.4344 16.7549 11.6842 16.2606C10.1193 15.2294 10.7743 14.5979 11.6476 13.7559C11.7891 13.6196 11.9365 13.4776 12.0809 13.3277C12.1436 13.2624 12.4436 12.9834 12.8689 12.5879L12.905 12.5544C14.3308 11.2289 17.0858 8.66763 17.1553 8.37113C17.1667 8.32251 17.1774 8.14129 17.0696 8.04553C16.9619 7.94977 16.8029 7.98255 16.6882 8.00851C16.5258 8.04553 13.9365 9.75694 8.92027 13.1429C8.1853 13.6477 7.51957 13.8936 6.92311 13.8807C6.26556 13.8665 5.00069 13.5089 4.06039 13.2032C3.92231 13.1584 3.78761 13.116 3.6576 13.0752C2.7021 12.7747 2.00003 12.5539 2.07027 11.9934C2.11184 11.6619 2.56852 11.3227 3.44032 10.9759Z"/>
</svg>
