<svg width="80" height="80" viewBox="0 0 80 80" fill="none" xmlns="http://www.w3.org/2000/svg">
<rect width="80" height="80" rx="40" fill="#749F58"/>
<path d="M39.9999 25.28C31.8834 25.28 25.2799 31.8835 25.2799 40C25.2799 42.5344 25.9346 45.0266 27.1762 47.2256L25.3036 53.9072C25.2421 54.1267 25.3016 54.3623 25.4604 54.5255C25.5826 54.6515 25.749 54.72 25.9199 54.72C25.9711 54.72 26.0229 54.7136 26.0735 54.7015L33.0469 52.9741C35.1762 54.1171 37.5743 54.72 39.9999 54.72C48.1164 54.72 54.7199 48.1165 54.7199 40C54.7199 31.8835 48.1164 25.28 39.9999 25.28ZM47.4047 45.1943C47.0898 46.0659 45.5794 46.8615 44.8536 46.9683C44.2021 47.0637 43.3778 47.1047 42.4728 46.8205C41.9244 46.6477 41.2204 46.4186 40.3186 46.0339C36.5279 44.4173 34.0524 40.6483 33.8629 40.3994C33.6741 40.1504 32.3199 38.3763 32.3199 36.5402C32.3199 34.704 33.2959 33.801 33.6428 33.4272C33.9896 33.0535 34.3986 32.96 34.6508 32.96C34.9029 32.96 35.1544 32.9632 35.3752 32.9735C35.6076 32.985 35.9192 32.8858 36.2258 33.6141C36.5407 34.3616 37.2965 36.1978 37.39 36.3853C37.4847 36.5722 37.5474 36.7904 37.422 37.0394C37.2965 37.2883 37.2338 37.4439 37.0444 37.6621C36.8549 37.8803 36.6476 38.1485 36.4773 38.3162C36.2879 38.5024 36.0914 38.704 36.3116 39.0778C36.5317 39.4515 37.2901 40.6733 38.414 41.6627C39.8572 42.9338 41.0751 43.328 41.4527 43.5149C41.8303 43.7018 42.0511 43.6704 42.2712 43.4215C42.4914 43.1719 43.2159 42.3315 43.4674 41.9584C43.7189 41.5853 43.9711 41.6467 44.318 41.7715C44.6648 41.8957 46.5228 42.7981 46.9004 42.985C47.278 43.1719 47.5301 43.2653 47.6248 43.4208C47.7196 43.5757 47.7196 44.3232 47.4047 45.1943Z" fill="#EFE8E0"/>
</svg>
