<svg width="44" height="44" viewBox="0 0 44 44" fill="none" xmlns="http://www.w3.org/2000/svg">
<rect width="44" height="44" rx="22" fill="#749F58"/>
<g clip-path="url(#clip0_312_1133)">
<path d="M22 10.96C15.9127 10.96 10.96 15.9126 10.96 22C10.96 23.9008 11.4511 25.7699 12.3823 27.4192L10.9778 32.4304C10.9317 32.595 10.9764 32.7716 11.0954 32.894C11.1871 32.9886 11.3119 33.04 11.44 33.04C11.4784 33.04 11.5173 33.0352 11.5552 33.026L16.7853 31.7305C18.3823 32.5878 20.1808 33.04 22 33.04C28.0874 33.04 33.04 28.0873 33.04 22C33.04 15.9126 28.0874 10.96 22 10.96ZM27.5536 25.8956C27.3175 26.5494 26.1847 27.146 25.6404 27.2262C25.1517 27.2977 24.5335 27.3284 23.8548 27.1153C23.4434 26.9857 22.9154 26.8139 22.2391 26.5254C19.396 25.3129 17.5394 22.4862 17.3973 22.2995C17.2557 22.1128 16.24 20.7822 16.24 19.4051C16.24 18.028 16.972 17.3507 17.2322 17.0704C17.4924 16.79 17.7991 16.72 17.9882 16.72C18.1773 16.72 18.366 16.7224 18.5316 16.73C18.7058 16.7387 18.9396 16.6643 19.1695 17.2105C19.4056 17.7712 19.9725 19.1483 20.0426 19.2889C20.1136 19.4291 20.1607 19.5928 20.0666 19.7795C19.9725 19.9662 19.9255 20.0828 19.7834 20.2465C19.6413 20.4102 19.4858 20.6113 19.3581 20.7371C19.216 20.8768 19.0687 21.028 19.2338 21.3083C19.3989 21.5886 19.9677 22.5049 20.8106 23.247C21.893 24.2003 22.8064 24.496 23.0896 24.6361C23.3728 24.7763 23.5384 24.7528 23.7036 24.566C23.8687 24.3788 24.412 23.7486 24.6007 23.4688C24.7893 23.1889 24.9784 23.235 25.2386 23.3286C25.4988 23.4217 26.8922 24.0985 27.1754 24.2387C27.4586 24.3788 27.6477 24.4489 27.7188 24.5656C27.7898 24.6817 27.7898 25.2424 27.5536 25.8956Z" fill="#EFE8E0"/>
</g>
<defs>
<clipPath id="clip0_312_1133">
<rect width="24" height="24" fill="white" transform="translate(10 10)"/>
</clipPath>
</defs>
</svg>
