<svg width="103" height="80" viewBox="0 0 103 80" fill="none" xmlns="http://www.w3.org/2000/svg">
<path d="M41.0566 2.56686C39.6601 2.56686 36.8672 5.13371 32.6777 10.2674C28.4883 15.1159 24.5781 20.6774 20.9472 26.9519C17.5957 33.2264 15.9199 38.7879 15.9199 43.6364C15.9199 45.0624 16.1992 46.631 16.7578 48.3423C17.3164 46.3458 18.5732 44.6346 20.5283 43.2085C22.7627 41.4973 25.8349 40.6417 29.7451 40.6417C35.6103 40.6417 39.9394 42.3529 42.7324 45.7754C45.8046 48.9127 47.3408 52.9055 47.3408 57.754C47.3408 63.4581 45.1064 68.5918 40.6377 73.1551C36.4482 77.7184 30.7226 80 23.4609 80C17.0371 80 11.7305 78.1462 7.54101 74.4385C3.63086 70.7308 1.25683 66.3102 0.418945 61.1765C0.139648 59.7504 0 57.4688 0 54.3316C0 43.4938 3.49121 33.2264 10.4736 23.5294C17.456 13.5472 26.8125 5.70411 38.5429 0L41.0566 2.56686ZM96.3573 2.56686C94.9609 2.56686 92.1679 5.13371 87.9784 10.2674C83.789 15.1159 79.8788 20.6774 76.248 26.9519C72.8964 33.2264 71.2206 38.7879 71.2206 43.6364C71.2206 45.0624 71.4999 46.631 72.0585 48.3423C72.6171 46.3458 73.874 44.6346 75.829 43.2085C78.0634 41.4973 81.1357 40.6417 85.0458 40.6417C90.9111 40.6417 95.2402 42.3529 98.0331 45.7754C101.105 48.9127 102.642 52.9055 102.642 57.754C102.642 63.4581 100.407 68.5918 95.9384 73.1551C91.7489 77.7184 86.0234 80 78.7617 80C72.3378 80 67.0312 78.1462 62.8417 74.4385C58.9316 70.7308 56.5576 66.3102 55.7197 61.1765C55.4404 59.7504 55.3007 57.4688 55.3007 54.3316C55.3007 43.4938 58.7919 33.2264 65.7744 23.5294C72.7568 13.5472 82.1132 5.70411 93.8437 0L96.3573 2.56686Z" fill="#B56767"/>
</svg>
