<svg width="52" height="40" viewBox="0 0 52 40" fill="none" xmlns="http://www.w3.org/2000/svg">
<path opacity="0.12" d="M20.5283 1.28343C19.8301 1.28343 18.4336 2.56685 16.3389 5.1337C14.2441 7.55794 12.2891 10.3387 10.4736 13.4759C8.79784 16.6132 7.95995 19.3939 7.95995 21.8182C7.95995 22.5312 8.0996 23.3155 8.3789 24.1711C8.6582 23.1729 9.28661 22.3173 10.2642 21.6043C11.3813 20.7487 12.9175 20.3209 14.8725 20.3209C17.8052 20.3209 19.9697 21.1765 21.3662 22.8877C22.9023 24.4563 23.6704 26.4528 23.6704 28.877C23.6704 31.7291 22.5532 34.2959 20.3188 36.5775C18.2241 38.8592 15.3613 40 11.7305 40C8.51855 40 5.86523 39.0731 3.7705 37.2192C1.81543 35.3654 0.628417 33.1551 0.209472 30.5882C0.0698242 29.8752 0 28.7344 0 27.1658C0 21.7469 1.7456 16.6132 5.23681 11.7647C8.72802 6.77362 13.4062 2.85206 19.2715 0L20.5283 1.28343ZM48.1787 1.28343C47.4804 1.28343 46.0839 2.56685 43.9892 5.1337C41.8945 7.55794 39.9394 10.3387 38.124 13.4759C36.4482 16.6132 35.6103 19.3939 35.6103 21.8182C35.6103 22.5312 35.75 23.3155 36.0293 24.1711C36.3086 23.1729 36.937 22.3173 37.9145 21.6043C39.0317 20.7487 40.5678 20.3209 42.5229 20.3209C45.4555 20.3209 47.6201 21.1765 49.0166 22.8877C50.5527 24.4563 51.3208 26.4528 51.3208 28.877C51.3208 31.7291 50.2036 34.2959 47.9692 36.5775C45.8745 38.8592 43.0117 40 39.3808 40C36.1689 40 33.5156 39.0731 31.4209 37.2192C29.4658 35.3654 28.2788 33.1551 27.8598 30.5882C27.7202 29.8752 27.6504 28.7344 27.6504 27.1658C27.6504 21.7469 29.396 16.6132 32.8872 11.7647C36.3784 6.77362 41.0566 2.85206 46.9218 0L48.1787 1.28343Z" fill="#141A1B"/>
</svg>
