<svg width="80" height="80" viewBox="0 0 80 80" fill="none" xmlns="http://www.w3.org/2000/svg">
<rect width="80" height="80" rx="40" fill="#212121"/>
<path d="M39.9998 25.28C48.1297 25.28 54.7198 31.8701 54.7198 40C54.7198 48.1299 48.1297 54.72 39.9998 54.72C31.8699 54.72 25.2798 48.1299 25.2798 40C25.2798 31.8701 31.8699 25.28 39.9998 25.28ZM45.0775 46C45.3483 45.1693 46.6167 36.8903 46.7735 35.2589C46.8209 34.7648 46.6647 34.4365 46.3588 34.2899C45.9889 34.112 45.4411 34.201 44.8055 34.4301C43.9339 34.7443 32.7902 39.4759 32.1463 39.7498C31.5358 40.009 30.9585 40.2919 30.9585 40.7015C30.9585 40.9895 31.1294 41.1514 31.6004 41.3197C32.0907 41.4944 33.3252 41.8688 34.0542 42.0698C34.7563 42.2637 35.5556 42.0954 36.0036 41.817C36.4785 41.5219 41.9588 37.8547 42.3524 37.5335C42.7454 37.2122 43.059 37.6237 42.7377 37.9456C42.4164 38.2669 38.6545 41.9181 38.1585 42.4237C37.5563 43.0375 37.9838 43.6736 38.3876 43.9283C38.8491 44.2189 42.1675 46.4448 42.6673 46.8019C43.1671 47.1591 43.674 47.321 44.138 47.321C44.602 47.321 44.8465 46.7098 45.0775 46Z" fill="#EFE8E0"/>
</svg>
