<svg width="128" height="24" viewBox="0 0 128 24" fill="#EFE8E0" xmlns="http://www.w3.org/2000/svg">
<path d="M12.7096 16.968C12.9779 17.224 13.3723 17.352 13.893 17.352C14.3033 17.352 14.7372 17.288 15.1948 17.16V17.616C14.8161 17.776 14.2954 17.856 13.6327 17.856C13.3013 17.856 12.9463 17.824 12.5676 17.76C11.7156 17.568 11.0134 17.24 10.4612 16.776C9.92472 16.296 9.48292 15.68 9.13579 14.928C8.78866 14.16 8.47309 13.168 8.18908 11.952C7.93662 10.928 7.51849 10.016 6.93468 9.216C6.36665 8.4 5.79862 7.992 5.2306 7.992H3.55018V16.32C3.55018 16.64 3.62907 16.888 3.78686 17.064C3.96042 17.224 4.1971 17.304 4.49689 17.304C4.74935 17.304 5.02547 17.256 5.32527 17.16V17.76H0V17.16C0.299793 17.256 0.575918 17.304 0.828375 17.304C1.12817 17.304 1.35696 17.224 1.51474 17.064C1.68831 16.888 1.77509 16.64 1.77509 16.32V1.44C1.77509 1.12 1.68831 0.879999 1.51474 0.719999C1.35696 0.544 1.12817 0.456 0.828375 0.456C0.575918 0.456 0.299793 0.504 0 0.599999V0H5.32527V0.599999C5.02547 0.504 4.74935 0.456 4.49689 0.456C4.1971 0.456 3.96042 0.544 3.78686 0.719999C3.62907 0.879999 3.55018 1.12 3.55018 1.44V7.464H5.32527L10.3192 1.44C10.4612 1.264 10.5322 1.104 10.5322 0.959999C10.5322 0.815999 10.4691 0.695999 10.3429 0.599999C10.2166 0.504 10.0509 0.456 9.84583 0.456C9.62493 0.456 9.38825 0.504 9.13579 0.599999V0H13.893V0.599999C13.6248 0.52 13.3881 0.48 13.183 0.48C12.8516 0.48 12.5203 0.559999 12.1889 0.719999C11.8576 0.863999 11.5578 1.072 11.2896 1.344L6.01163 7.56C6.61122 7.56 7.20292 7.728 7.78672 8.064C8.37053 8.384 8.88333 8.848 9.32513 9.456C9.78271 10.048 10.1062 10.728 10.2955 11.496C10.6584 12.984 11.0371 14.16 11.4316 15.024C11.826 15.888 12.2521 16.536 12.7096 16.968Z"/>
<path d="M19.7407 18C18.573 18 17.6105 17.72 16.8532 17.16C16.1116 16.6 15.5672 15.872 15.2201 14.976C14.8887 14.064 14.7231 13.08 14.7231 12.024C14.7231 11 14.8966 10.04 15.2438 9.144C15.5909 8.232 16.1116 7.496 16.8058 6.936C17.5159 6.36 18.36 6.072 19.3383 6.072C20.2377 6.072 21.0739 6.28 21.8471 6.696C22.636 7.112 23.0857 7.64 23.1962 8.28C23.2277 8.504 23.2435 8.656 23.2435 8.736C23.2435 9.088 23.1567 9.376 22.9832 9.6C22.8096 9.808 22.565 9.912 22.2494 9.912C21.6972 9.912 21.4211 9.736 21.4211 9.384C21.4211 9.24 21.4605 9.032 21.5394 8.76C21.6341 8.44 21.6814 8.176 21.6814 7.968C21.6814 7.648 21.5631 7.368 21.3264 7.128C21.0897 6.872 20.8057 6.68 20.4744 6.552C20.143 6.424 19.8432 6.36 19.575 6.36C18.5809 6.36 17.7999 6.864 17.2319 7.872C16.6638 8.864 16.3798 10.32 16.3798 12.24C16.3798 13.792 16.6559 15.064 17.2082 16.056C17.7762 17.048 18.644 17.544 19.8117 17.544C20.6164 17.544 21.2791 17.296 21.7998 16.8C22.3204 16.304 22.6676 15.696 22.8411 14.976H23.3618C23.1409 15.808 22.6991 16.52 22.0364 17.112C21.3737 17.704 20.6085 18 19.7407 18Z" />
<path d="M29.4816 18C27.9827 18 26.8624 17.496 26.1208 16.488C25.3792 15.464 25.0084 13.976 25.0084 12.024C25.0084 11 25.1662 10.04 25.4818 9.144C25.7973 8.232 26.2865 7.496 26.9492 6.936C27.6277 6.36 28.456 6.072 29.4343 6.072C31.0279 6.072 32.164 6.568 32.8425 7.56C33.521 8.536 33.8602 9.712 33.8602 11.088C33.8602 11.328 33.8444 11.64 33.8129 12.024L33.7892 12.24H26.6652C26.7283 15.824 27.7144 17.616 29.6236 17.616C30.4757 17.616 31.1068 17.352 31.5171 16.824C31.9273 16.296 32.1324 15.696 32.1324 15.024C32.1324 14.752 32.0614 14.552 31.9194 14.424C31.7932 14.296 31.6275 14.232 31.4224 14.232C31.2646 14.232 31.1226 14.28 30.9964 14.376C30.8859 14.456 30.8307 14.56 30.8307 14.688H30.6177V14.04H33.6235C33.6708 14.648 33.521 15.256 33.1738 15.864C32.8425 16.472 32.3533 16.976 31.7064 17.376C31.0595 17.776 30.3179 17.984 29.4816 18ZM31.5881 11.88C31.8721 11.88 32.0378 11.856 32.0851 11.808C32.1482 11.744 32.1877 11.6 32.2034 11.376C32.2192 11.2 32.2271 10.936 32.2271 10.584C32.2271 9.368 32.0062 8.36 31.5644 7.56C31.1226 6.76 30.381 6.36 29.3396 6.36C28.3298 6.36 27.6355 6.864 27.2569 7.872C26.8782 8.88 26.6809 10.216 26.6652 11.88H31.5881Z"/>
<path d="M35.4038 17.4C35.672 17.48 35.8692 17.52 35.9955 17.52C36.2479 17.52 36.4057 17.424 36.4688 17.232C36.5477 17.04 36.5872 16.736 36.5872 16.32V7.992C36.5872 7.576 36.5477 7.272 36.4688 7.08C36.4057 6.888 36.2479 6.792 35.9955 6.792C35.8692 6.792 35.672 6.832 35.4038 6.912V6.552H39.4273V6.912C39.2064 6.832 39.0013 6.792 38.812 6.792C38.5437 6.792 38.3701 6.896 38.2913 7.104C38.2124 7.296 38.1729 7.592 38.1729 7.992V11.448H43.5455V7.992C43.5455 7.576 43.5061 7.272 43.4272 7.08C43.3641 6.888 43.2063 6.792 42.9538 6.792C42.8276 6.792 42.6304 6.832 42.3621 6.912V6.552H46.3857V6.912C46.1174 6.832 45.9202 6.792 45.794 6.792C45.51 6.792 45.3285 6.896 45.2496 7.104C45.1707 7.296 45.1313 7.592 45.1313 7.992V16.32C45.1313 16.72 45.1707 17.024 45.2496 17.232C45.3285 17.424 45.51 17.52 45.794 17.52C45.9202 17.52 46.1174 17.48 46.3857 17.4V17.76H42.3621V17.4C42.6304 17.48 42.8276 17.52 42.9538 17.52C43.2063 17.52 43.3641 17.424 43.4272 17.232C43.5061 17.04 43.5455 16.736 43.5455 16.32V11.88H38.1729V16.32C38.1729 16.72 38.2124 17.024 38.2913 17.232C38.3701 17.424 38.5516 17.52 38.8356 17.52C38.9618 17.52 39.1591 17.48 39.4273 17.4V17.76H35.4038V17.4Z"/>
<path d="M47.8155 17.4C48.0838 17.48 48.281 17.52 48.4072 17.52C48.6597 17.52 48.8175 17.424 48.8806 17.232C48.9595 17.04 48.9989 16.736 48.9989 16.32V7.992C48.9989 7.576 48.9595 7.272 48.8806 7.08C48.8175 6.888 48.6597 6.792 48.4072 6.792C48.281 6.792 48.0838 6.832 47.8155 6.912V6.552H51.8391V6.912C51.5708 6.832 51.3736 6.792 51.2474 6.792C50.9634 6.792 50.7819 6.896 50.703 7.104C50.6241 7.296 50.5847 7.592 50.5847 7.992V15.264L55.9573 8.064V7.992C55.9573 7.576 55.9178 7.272 55.8389 7.08C55.7758 6.888 55.618 6.792 55.3656 6.792C55.2393 6.792 55.0421 6.832 54.7739 6.912V6.552H58.7974V6.912C58.5292 6.832 58.3319 6.792 58.2057 6.792C57.9217 6.792 57.7402 6.896 57.6614 7.104C57.5825 7.296 57.543 7.592 57.543 7.992V16.32C57.543 16.72 57.5825 17.024 57.6614 17.232C57.7402 17.424 57.9217 17.52 58.2057 17.52C58.3319 17.52 58.5292 17.48 58.7974 17.4V17.76H54.7739V17.4C55.0421 17.48 55.2393 17.52 55.3656 17.52C55.618 17.52 55.7758 17.424 55.8389 17.232C55.9178 17.04 55.9573 16.736 55.9573 16.32V8.664L50.5847 15.864V16.32C50.5847 16.72 50.6241 17.024 50.703 17.232C50.7819 17.424 50.9634 17.52 51.2474 17.52C51.3736 17.52 51.5708 17.48 51.8391 17.4V17.76H47.8155V17.4Z"/>
<path d="M60.6296 18.24C59.9038 18.24 59.2964 18.096 58.8072 17.808L58.9492 17.544C59.2806 17.736 59.5567 17.832 59.7776 17.832C60.3298 17.832 60.7401 17.624 61.0083 17.208C61.2923 16.792 61.5842 16.152 61.884 15.288C62.1049 14.68 62.2943 14.2 62.4521 13.848C62.6256 13.48 62.8623 13.168 63.1621 12.912C63.4619 12.656 63.8406 12.52 64.2982 12.504C63.3514 12.312 62.5546 11.952 61.9077 11.424C61.2608 10.88 60.9373 10.24 60.9373 9.504C60.9373 8.384 61.3633 7.576 62.2154 7.08C63.0832 6.568 64.1798 6.312 65.5052 6.312H69.5051V6.672C69.2368 6.592 69.0396 6.552 68.9134 6.552C68.6294 6.552 68.4479 6.656 68.369 6.864C68.2901 7.056 68.2507 7.352 68.2507 7.752V16.32C68.2507 16.72 68.2901 17.024 68.369 17.232C68.4479 17.424 68.6294 17.52 68.9134 17.52C69.0396 17.52 69.2368 17.48 69.5051 17.4V17.76H65.4816V17.4C65.7498 17.48 65.947 17.52 66.0732 17.52C66.3257 17.52 66.4835 17.424 66.5466 17.232C66.6255 17.04 66.6649 16.736 66.6649 16.32V12.624C65.8287 12.64 65.1739 12.8 64.7005 13.104C64.2271 13.408 63.88 13.768 63.6591 14.184C63.454 14.584 63.2568 15.12 63.0674 15.792C62.8939 16.352 62.7361 16.792 62.5941 17.112C62.4521 17.432 62.2233 17.696 61.9077 17.904C61.5921 18.128 61.1661 18.24 60.6296 18.24ZM66.6649 7.752C66.6649 7.48 66.6492 7.272 66.6176 7.128C66.5861 6.968 66.4835 6.84 66.3099 6.744C66.1364 6.632 65.8602 6.6 65.4816 6.648C64.4244 6.776 63.6591 7.112 63.1858 7.656C62.7124 8.184 62.4757 8.832 62.4757 9.6C62.4757 10.368 62.7992 11 63.4461 11.496C64.1088 11.992 64.953 12.24 65.9786 12.24C66.1206 12.24 66.3494 12.224 66.6649 12.192V7.752Z"/>
<path d="M77.532 7.152C78.7312 7.152 79.8041 7.368 80.7508 7.8C81.6975 8.216 82.4313 8.792 82.9519 9.528C83.4884 10.248 83.7566 11.056 83.7566 11.952C83.7566 13.232 83.4411 14.312 82.8099 15.192C82.1946 16.072 81.3899 16.72 80.3958 17.136C79.4175 17.552 78.384 17.76 77.2953 17.76H71.1654V17.16C71.4651 17.256 71.7334 17.304 71.9701 17.304C72.5854 17.304 72.9089 16.976 72.9404 16.32C73.0193 13.44 73.0588 10.84 73.0588 8.52C73.0588 6.408 73.0193 4.048 72.9404 1.44C72.9089 0.784 72.5854 0.456 71.9701 0.456C71.7334 0.456 71.4651 0.504 71.1654 0.599999V0H82.1709L82.0999 0.696C82.0526 1 82.0289 1.392 82.0289 1.872C82.0289 2.816 82.1393 3.552 82.3602 4.08H81.9816C81.8396 3.808 81.7212 3.376 81.6265 2.784C81.5319 2.208 81.3899 1.752 81.2005 1.416C81.0112 1.08 80.6167 0.8 80.0171 0.576C79.4333 0.352 78.5497 0.24 77.3663 0.24H74.7155C74.6998 1.712 74.6919 3.984 74.6919 7.056C75.2757 7.12 76.2224 7.152 77.532 7.152ZM76.68 17.52C77.8002 17.52 78.7469 17.288 79.5201 16.824C80.2933 16.36 80.8692 15.736 81.2479 14.952C81.6423 14.152 81.8395 13.264 81.8395 12.288C81.8395 10.656 81.4609 9.488 80.7035 8.784C79.9619 8.064 78.8969 7.688 77.5083 7.656L76.5616 7.632C75.9936 7.632 75.3703 7.672 74.6919 7.752L74.7155 15.024C74.7155 15.744 74.8023 16.288 74.9759 16.656C75.1652 17.024 75.394 17.264 75.6622 17.376C75.9463 17.472 76.2855 17.52 76.68 17.52Z"/>
<path d="M88.6659 18C87.7823 18 87.0407 17.728 86.4411 17.184C85.8415 16.624 85.5417 15.832 85.5417 14.808C85.5417 14.072 85.7863 13.448 86.2754 12.936C86.7646 12.408 87.301 12.048 87.8848 11.856C88.1846 11.76 88.5318 11.672 88.9262 11.592C89.3365 11.496 89.6126 11.432 89.7546 11.4C90.5435 11.24 91.1352 11.096 91.5297 10.968C91.9241 10.824 92.1608 10.632 92.2397 10.392C92.2397 9.24 92.0188 8.28 91.577 7.512C91.151 6.744 90.4331 6.36 89.4232 6.36C88.7921 6.36 88.3187 6.592 88.0032 7.056C87.7034 7.504 87.5535 8.112 87.5535 8.88C87.5535 9.088 87.5929 9.24 87.6718 9.336C87.7507 9.416 87.9322 9.456 88.2162 9.456C88.3897 9.456 88.5396 9.416 88.6659 9.336C88.7921 9.256 88.8552 9.16 88.8552 9.048H89.0682V9.696H85.9677C85.9677 9.12 86.1334 8.552 86.4648 7.992C86.7961 7.416 87.2537 6.952 87.8375 6.6C88.4213 6.232 89.0682 6.048 89.7783 6.048C90.725 6.048 91.4824 6.272 92.0504 6.72C92.6342 7.152 93.0444 7.68 93.2811 8.304C93.5336 8.912 93.6598 9.52 93.6598 10.128V15.336C93.6598 16.536 93.9123 17.136 94.4172 17.136C94.575 17.136 94.717 17.032 94.8432 16.824C94.9852 16.6 95.0562 16.376 95.0562 16.152H95.2929C95.2929 16.744 95.1114 17.2 94.7485 17.52C94.4014 17.84 93.999 18 93.5415 18C93.005 18 92.65 17.76 92.4764 17.28C92.3186 16.8 92.2397 16.128 92.2397 15.264V14.16C92.2397 14.384 92.1293 14.808 91.9084 15.432C91.7033 16.056 91.3325 16.64 90.796 17.184C90.2595 17.728 89.5495 18 88.6659 18ZM89.2102 17.328C89.7467 17.328 90.2437 17.112 90.7013 16.68C91.1589 16.248 91.5218 15.736 91.79 15.144C92.0583 14.552 92.1924 14.056 92.1924 13.656V10.92C92.1924 10.968 92.1135 11.016 91.9557 11.064C91.7979 11.112 91.6007 11.16 91.364 11.208C90.3384 11.48 89.5889 11.704 89.1156 11.88C88.374 12.152 87.8296 12.536 87.4825 13.032C87.1354 13.512 86.9618 14.056 86.9618 14.664C86.9618 15.368 87.1511 15.992 87.5298 16.536C87.9243 17.064 88.4844 17.328 89.2102 17.328Z"/>
<path d="M96.4687 23.64C96.7369 23.72 96.9342 23.76 97.0604 23.76C97.3444 23.76 97.5259 23.656 97.6047 23.448C97.6836 23.256 97.7231 22.96 97.7231 22.56V7.8C97.4864 7.88 97.2339 7.92 96.9657 7.92C96.8553 7.92 96.6896 7.904 96.4687 7.872V7.224H96.6817C96.6817 7.336 96.7369 7.432 96.8474 7.512C96.9736 7.592 97.1156 7.632 97.2734 7.632C97.4943 7.632 97.6915 7.544 97.8651 7.368C98.0387 7.192 98.2517 6.92 98.5041 6.552H99.2142V8.064H99.6402C100.287 6.736 101.344 6.072 102.812 6.072C104.279 6.072 105.336 6.68 105.983 7.896C106.63 9.096 106.954 10.632 106.954 12.504C106.954 13.496 106.796 14.408 106.48 15.24C106.165 16.072 105.691 16.744 105.06 17.256C104.445 17.752 103.687 18 102.788 18C102.031 18 101.376 17.776 100.824 17.328C100.271 16.88 99.8295 16.296 99.4982 15.576H99.1195L99.0958 21.84V22.56C99.0958 22.976 99.1274 23.28 99.1905 23.472C99.2694 23.664 99.4351 23.76 99.6875 23.76C99.8137 23.76 100.011 23.72 100.279 23.64V24H96.4687V23.64ZM99.4035 12.12C99.4035 12.888 99.5061 13.704 99.7112 14.568C99.9321 15.432 100.271 16.176 100.729 16.8C101.186 17.408 101.755 17.712 102.433 17.712C103.411 17.712 104.129 17.176 104.587 16.104C105.06 15.032 105.297 13.712 105.297 12.144C105.297 10.544 105.068 9.208 104.61 8.136C104.153 7.048 103.411 6.504 102.386 6.504C101.25 6.504 100.469 7.032 100.043 8.088C99.6165 9.128 99.4035 10.472 99.4035 12.12Z"/>
<path d="M117.195 17.304C117.4 17.464 117.676 17.544 118.023 17.544C118.291 17.544 118.583 17.504 118.899 17.424V17.712C118.63 17.824 118.196 17.88 117.597 17.88C117.218 17.88 116.934 17.856 116.745 17.808C115.877 17.632 115.23 17.256 114.804 16.68C114.394 16.088 114.094 15.208 113.905 14.04C113.763 13.112 113.518 12.464 113.171 12.096C112.84 11.712 112.406 11.52 111.869 11.52H110.97V16.872C110.97 17.304 111.159 17.52 111.538 17.52C111.696 17.52 111.869 17.488 112.059 17.424V17.808H108.366V17.424C108.556 17.488 108.729 17.52 108.887 17.52C109.25 17.52 109.431 17.304 109.431 16.872V7.488C109.431 7.072 109.258 6.864 108.911 6.864C108.737 6.864 108.556 6.896 108.366 6.96V6.552H112.059V6.96C111.869 6.896 111.688 6.864 111.514 6.864C111.325 6.864 111.183 6.92 111.088 7.032C111.009 7.128 110.97 7.28 110.97 7.488V11.208L111.869 11.184H112.698C113.281 10.416 113.834 9.728 114.354 9.12C114.686 8.736 114.986 8.344 115.254 7.944C115.364 7.816 115.419 7.672 115.419 7.512C115.419 7.32 115.317 7.168 115.112 7.056C114.907 6.928 114.646 6.864 114.331 6.864C114.094 6.864 113.873 6.896 113.668 6.96V6.552H117.692V6.96C117.486 6.896 117.289 6.864 117.1 6.864C116.847 6.864 116.634 6.936 116.461 7.08C116.303 7.208 116.137 7.384 115.964 7.608C115.806 7.816 115.688 7.968 115.609 8.064L113.029 11.352C113.644 11.528 114.173 11.832 114.615 12.264C115.072 12.68 115.38 13.184 115.538 13.776C115.759 14.608 116.011 15.344 116.295 15.984C116.595 16.624 116.895 17.064 117.195 17.304Z"/>
<path d="M123.621 18C122.122 18 121.002 17.496 120.261 16.488C119.519 15.464 119.148 13.976 119.148 12.024C119.148 11 119.306 10.04 119.622 9.144C119.937 8.232 120.426 7.496 121.089 6.936C121.767 6.36 122.596 6.072 123.574 6.072C125.168 6.072 126.304 6.568 126.982 7.56C127.661 8.536 128 9.712 128 11.088C128 11.328 127.984 11.64 127.953 12.024L127.929 12.24H120.805C120.868 15.824 121.854 17.616 123.763 17.616C124.616 17.616 125.247 17.352 125.657 16.824C126.067 16.296 126.272 15.696 126.272 15.024C126.272 14.752 126.201 14.552 126.059 14.424C125.933 14.296 125.767 14.232 125.562 14.232C125.404 14.232 125.262 14.28 125.136 14.376C125.026 14.456 124.971 14.56 124.971 14.688H124.757V14.04H127.763C127.811 14.648 127.661 15.256 127.314 15.864C126.982 16.472 126.493 16.976 125.846 17.376C125.199 17.776 124.458 17.984 123.621 18ZM125.728 11.88C126.012 11.88 126.178 11.856 126.225 11.808C126.288 11.744 126.327 11.6 126.343 11.376C126.359 11.2 126.367 10.936 126.367 10.584C126.367 9.368 126.146 8.36 125.704 7.56C125.262 6.76 124.521 6.36 123.479 6.36C122.47 6.36 121.775 6.864 121.397 7.872C121.018 8.88 120.821 10.216 120.805 11.88H125.728Z"/>
</svg>
